<svg xmlns="http://www.w3.org/2000/svg" version="1.1" xmlns:xlink="http://www.w3.org/1999/xlink" xmlns:svgjs="http://svgjs.dev/svgjs" width="2000" height="1247" viewBox="0 0 2000 1247"><g transform="matrix(1,0,0,1,-1.2121212121212466,0.504858299595071)"><svg viewBox="0 0 396 247" data-background-color="#000000" preserveAspectRatio="xMidYMid meet" height="1247" width="2000" xmlns="http://www.w3.org/2000/svg" xmlns:xlink="http://www.w3.org/1999/xlink"><g id="tight-bounds" transform="matrix(1,0,0,1,0.2400000000000091,-0.09999999999999432)"><svg viewBox="0 0 395.52 247.2" height="247.2" width="395.52"><rect width="395.52" height="247.2" fill="url(#bcb5475c-9aa2-447f-9369-cfea79d04aff)" mask="url(#7ad4c65a-b257-41d2-8dd6-be5e3f76da28)" data-fill-palette-color="tertiary"></rect><g><svg></svg></g><g><svg viewBox="0 0 395.52 247.2" height="247.2" width="395.52"><g transform="matrix(1,0,0,1,146.33685273492284,47.215199999999996)"><svg viewBox="0 0 102.84629453015428 152.7696" height="152.7696" width="102.84629453015428"><g><svg viewBox="0 0 102.84629453015428 152.7696" height="152.7696" width="102.84629453015428"><g><svg viewBox="0 0 102.84629453015428 152.7696" height="152.7696" width="102.84629453015428"><g><svg viewBox="0 0 102.84629453015428 152.7696" height="152.7696" width="102.84629453015428"><g id="textblocktransform"><svg viewBox="0 0 102.84629453015428 152.7696" height="152.7696" width="102.84629453015428" id="textblock"><g><svg viewBox="0 0 102.84629453015428 152.7696" height="152.7696" width="102.84629453015428"><g transform="matrix(1,0,0,1,0,0)"><svg width="102.84629453015428" viewBox="1.25 -35.05 24 35.65" height="152.7696" data-palette-color="url(#807e10e7-edb0-4ded-9f2e-1ea465f5df21)"></svg></g></svg></g></svg></g></svg></g></svg></g></svg></g></svg></g><g><path d="M175.023 0c30.402 0 58.24 10.976 79.768 29.183l-11.147 0c-19.26-14.022-42.974-22.294-68.621-22.295-25.647 0-49.361 8.272-68.621 22.295l-11.147 0c21.528-18.206 49.366-29.183 79.768-29.183zM175.023 247.2c-30.402 0-58.24-10.976-79.768-29.183h11.147c19.26 14.022 42.974 22.294 68.621 22.295 25.647 0 49.361-8.272 68.621-22.295l11.147 0c-21.528 18.206-49.366 29.183-79.768 29.183z" fill="url(#bcb5475c-9aa2-447f-9369-cfea79d04aff)" stroke="transparent" data-fill-palette-color="tertiary"></path></g></svg></g><defs></defs><mask id="cbfe8d26-3ebb-48b0-a0c1-7ad20d58e050"><g id="SvgjsG1008"><svg viewBox="0 0 395.52 247.2" height="247.2" width="395.52"><g><svg></svg></g><g><svg viewBox="0 0 395.52 247.2" height="247.2" width="395.52"><g transform="matrix(1,0,0,1,146.33685273492284,47.215199999999996)"><svg viewBox="0 0 102.84629453015428 152.7696" height="152.7696" width="102.84629453015428"><g><svg viewBox="0 0 102.84629453015428 152.7696" height="152.7696" width="102.84629453015428"><g><svg viewBox="0 0 102.84629453015428 152.7696" height="152.7696" width="102.84629453015428"><g><svg viewBox="0 0 102.84629453015428 152.7696" height="152.7696" width="102.84629453015428"><g id="SvgjsG1007"><svg viewBox="0 0 102.84629453015428 152.7696" height="152.7696" width="102.84629453015428" id="SvgjsSvg1006"><g><svg viewBox="0 0 102.84629453015428 152.7696" height="152.7696" width="102.84629453015428"><g transform="matrix(1,0,0,1,0,0)"><svg width="102.84629453015428" viewBox="1.25 -35.05 24 35.65" height="152.7696" data-palette-color="url(#807e10e7-edb0-4ded-9f2e-1ea465f5df21)"><path d="M13.5-35.05Q16.95-35.05 19.4-34.08 21.85-33.1 24.15-31.05L24.15-31.05 21.55-28.15Q19.6-29.7 17.73-30.43 15.85-31.15 13.7-31.15L13.7-31.15Q11-31.15 9.25-29.9 7.5-28.65 7.5-26.25L7.5-26.25Q7.5-24.75 8.1-23.73 8.7-22.7 10.33-21.85 11.95-21 15.05-20.05L15.05-20.05Q18.3-19.05 20.45-17.9 22.6-16.75 23.93-14.73 25.25-12.7 25.25-9.6L25.25-9.6Q25.25-6.6 23.78-4.3 22.3-2 19.53-0.7 16.75 0.6 12.95 0.6L12.95 0.6Q5.8 0.6 1.25-3.85L1.25-3.85 3.85-6.75Q5.95-5.05 8.1-4.17 10.25-3.3 12.9-3.3L12.9-3.3Q16.1-3.3 18.2-4.88 20.3-6.45 20.3-9.45L20.3-9.45Q20.3-11.15 19.65-12.28 19-13.4 17.43-14.3 15.85-15.2 12.85-16.1L12.85-16.1Q7.55-17.7 5.1-19.95 2.65-22.2 2.65-26.05L2.65-26.05Q2.65-28.65 4.03-30.7 5.4-32.75 7.88-33.9 10.35-35.05 13.5-35.05L13.5-35.05Z" opacity="1" transform="matrix(1,0,0,1,0,0)" fill="white" class="wordmark-text-0" id="SvgjsPath1005"></path></svg></g></svg></g></svg></g></svg></g></svg></g></svg></g></svg></g><g><path d="M175.023 0c30.402 0 58.24 10.976 79.768 29.183l-11.147 0c-19.26-14.022-42.974-22.294-68.621-22.295-25.647 0-49.361 8.272-68.621 22.295l-11.147 0c21.528-18.206 49.366-29.183 79.768-29.183zM175.023 247.2c-30.402 0-58.24-10.976-79.768-29.183h11.147c19.26 14.022 42.974 22.294 68.621 22.295 25.647 0 49.361-8.272 68.621-22.295l11.147 0c-21.528 18.206-49.366 29.183-79.768 29.183z" fill="black" stroke="transparent"></path></g></svg></g><defs><mask></mask></defs></svg><rect width="395.52" height="247.2" fill="black" stroke="none" visibility="hidden"></rect></g></mask><linearGradient x1="0" x2="1" y1="0.578" y2="0.595" id="807e10e7-edb0-4ded-9f2e-1ea465f5df21"><stop stop-color="#6ee2f5" offset="0"></stop><stop stop-color="#6454f0" offset="1"></stop></linearGradient><rect width="395.52" height="247.2" fill="url(#807e10e7-edb0-4ded-9f2e-1ea465f5df21)" mask="url(#cbfe8d26-3ebb-48b0-a0c1-7ad20d58e050)" data-fill-palette-color="primary"></rect><mask id="7ad4c65a-b257-41d2-8dd6-be5e3f76da28"><g id="SvgjsG1031"><svg viewBox="0 0 395.52 247.2" height="247.2" width="395.52"><g><svg></svg></g><g><svg viewBox="0 0 395.52 247.2" height="247.2" width="395.52"><g transform="matrix(1,0,0,1,146.33685273492284,47.215199999999996)"><svg viewBox="0 0 102.84629453015428 152.7696" height="152.7696" width="102.84629453015428"><g><svg viewBox="0 0 102.84629453015428 152.7696" height="152.7696" width="102.84629453015428"><g><svg viewBox="0 0 102.84629453015428 152.7696" height="152.7696" width="102.84629453015428"><g><svg viewBox="0 0 102.84629453015428 152.7696" height="152.7696" width="102.84629453015428"><g id="SvgjsG1030"><svg viewBox="0 0 102.84629453015428 152.7696" height="152.7696" width="102.84629453015428" id="SvgjsSvg1029"><g><svg viewBox="0 0 102.84629453015428 152.7696" height="152.7696" width="102.84629453015428"><g transform="matrix(1,0,0,1,0,0)"><svg width="102.84629453015428" viewBox="1.25 -35.05 24 35.65" height="152.7696" data-palette-color="url(#807e10e7-edb0-4ded-9f2e-1ea465f5df21)"></svg></g></svg></g></svg></g></svg></g></svg></g></svg></g></svg></g><g><path d="M175.023 0c30.402 0 58.24 10.976 79.768 29.183l-11.147 0c-19.26-14.022-42.974-22.294-68.621-22.295-25.647 0-49.361 8.272-68.621 22.295l-11.147 0c21.528-18.206 49.366-29.183 79.768-29.183zM175.023 247.2c-30.402 0-58.24-10.976-79.768-29.183h11.147c19.26 14.022 42.974 22.294 68.621 22.295 25.647 0 49.361-8.272 68.621-22.295l11.147 0c-21.528 18.206-49.366 29.183-79.768 29.183z" fill="white" stroke="transparent"></path></g></svg></g><defs><mask></mask></defs><mask><g id="SvgjsG1028"><svg viewBox="0 0 395.52 247.2" height="247.2" width="395.52"><g><svg></svg></g><g><svg viewBox="0 0 395.52 247.2" height="247.2" width="395.52"><g transform="matrix(1,0,0,1,146.33685273492284,47.215199999999996)"><svg viewBox="0 0 102.84629453015428 152.7696" height="152.7696" width="102.84629453015428"><g><svg viewBox="0 0 102.84629453015428 152.7696" height="152.7696" width="102.84629453015428"><g><svg viewBox="0 0 102.84629453015428 152.7696" height="152.7696" width="102.84629453015428"><g><svg viewBox="0 0 102.84629453015428 152.7696" height="152.7696" width="102.84629453015428"><g id="SvgjsG1027"><svg viewBox="0 0 102.84629453015428 152.7696" height="152.7696" width="102.84629453015428" id="SvgjsSvg1026"><g><svg viewBox="0 0 102.84629453015428 152.7696" height="152.7696" width="102.84629453015428"><g transform="matrix(1,0,0,1,0,0)"><svg width="102.84629453015428" viewBox="1.25 -35.05 24 35.65" height="152.7696" data-palette-color="url(#807e10e7-edb0-4ded-9f2e-1ea465f5df21)"><path d="M13.5-35.05Q16.95-35.05 19.4-34.08 21.85-33.1 24.15-31.05L24.15-31.05 21.55-28.15Q19.6-29.7 17.73-30.43 15.85-31.15 13.7-31.15L13.7-31.15Q11-31.15 9.25-29.9 7.5-28.65 7.5-26.25L7.5-26.25Q7.5-24.75 8.1-23.73 8.7-22.7 10.33-21.85 11.95-21 15.05-20.05L15.05-20.05Q18.3-19.05 20.45-17.9 22.6-16.75 23.93-14.73 25.25-12.7 25.25-9.6L25.25-9.6Q25.25-6.6 23.78-4.3 22.3-2 19.53-0.7 16.75 0.6 12.95 0.6L12.95 0.6Q5.8 0.6 1.25-3.85L1.25-3.85 3.85-6.75Q5.95-5.05 8.1-4.17 10.25-3.3 12.9-3.3L12.9-3.3Q16.1-3.3 18.2-4.88 20.3-6.45 20.3-9.45L20.3-9.45Q20.3-11.15 19.65-12.28 19-13.4 17.43-14.3 15.85-15.2 12.85-16.1L12.85-16.1Q7.55-17.7 5.1-19.95 2.65-22.2 2.65-26.05L2.65-26.05Q2.65-28.65 4.03-30.7 5.4-32.75 7.88-33.9 10.35-35.05 13.5-35.05L13.5-35.05Z" opacity="1" transform="matrix(1,0,0,1,0,0)" fill="black" class="wordmark-text-0" id="SvgjsPath1025"></path></svg></g></svg></g></svg></g></svg></g></svg></g></svg></g></svg></g><g><path d="M175.023 0c30.402 0 58.24 10.976 79.768 29.183l-11.147 0c-19.26-14.022-42.974-22.294-68.621-22.295-25.647 0-49.361 8.272-68.621 22.295l-11.147 0c21.528-18.206 49.366-29.183 79.768-29.183zM175.023 247.2c-30.402 0-58.24-10.976-79.768-29.183h11.147c19.26 14.022 42.974 22.294 68.621 22.295 25.647 0 49.361-8.272 68.621-22.295l11.147 0c-21.528 18.206-49.366 29.183-79.768 29.183z" fill="black" stroke="transparent"></path></g></svg></g><defs><mask></mask></defs></svg><rect width="395.52" height="247.2" fill="black" stroke="none" visibility="hidden"></rect></g></mask></svg><rect width="395.52" height="247.2" fill="black" stroke="none" visibility="hidden"></rect></g></mask><linearGradient x1="0" x2="1" y1="0.578" y2="0.595" id="bcb5475c-9aa2-447f-9369-cfea79d04aff"><stop stop-color="#6ee2f5" offset="0"></stop><stop stop-color="#6454f0" offset="1"></stop></linearGradient></svg><rect width="395.52" height="247.2" fill="none" stroke="none" visibility="hidden"></rect></g></svg></g></svg>